<svg data-v-423bf9ae="" xmlns="http://www.w3.org/2000/svg" viewBox="0 0 456 90" class="iconLeft"><!----><!----><!----><g data-v-423bf9ae="" id="a2318809-b3d5-4468-8aa0-c3ad32a31ec9" fill="#000000" transform="matrix(5.889570713043213,0,0,5.889570713043213,107.17024993896484,-7.26993989944458)"><path d="M0.48 7.76L0.48 10.00C0.48 12.60 2.13 13.97 4.54 13.97C7.13 13.97 8.40 12.59 8.40 10.42L8.40 10.08L6.55 10.08L6.55 10.42C6.55 11.52 6.01 12.29 4.54 12.29C3.09 12.29 2.32 11.40 2.32 10.05L2.32 7.70C2.32 6.47 3.15 5.46 4.54 5.46C5.88 5.46 6.55 6.22 6.55 7.34L6.55 7.67L8.40 7.67L8.40 7.34C8.40 5.15 7.01 3.78 4.54 3.78C2.06 3.78 0.48 5.32 0.48 7.76ZM9.32 7.84L9.32 9.91C9.32 12.49 10.85 13.97 13.36 13.97C15.86 13.97 17.39 12.49 17.39 9.91L17.39 7.84C17.39 5.33 15.86 3.78 13.36 3.78C10.85 3.78 9.32 5.33 9.32 7.84ZM11.17 7.78C11.17 6.45 11.94 5.46 13.36 5.46C14.73 5.46 15.54 6.40 15.54 7.78L15.54 9.97C15.54 11.33 14.88 12.29 13.36 12.29C11.87 12.29 11.17 11.38 11.17 9.97ZM18.03 3.98L20.75 13.78L23.66 13.78L26.38 3.98L24.47 3.98L22.30 12.14L22.11 12.14L19.94 3.98ZM27.41 3.98L27.41 13.78L29.26 13.78L29.26 3.98ZM31.00 3.98L31.00 13.78L34.36 13.78C36.99 13.78 38.39 12.47 38.39 9.80L38.39 7.95C38.39 5.28 36.99 3.98 34.36 3.98ZM32.84 5.71L34.38 5.71C35.97 5.71 36.54 6.50 36.54 7.90L36.54 9.86C36.54 11.26 35.97 12.04 34.38 12.04L32.84 12.04ZM40.01 11.00L44.16 11.00L44.16 9.41L40.01 9.41ZM47.85 3.98L45.33 8.40L47.26 8.40L48.64 5.94L48.80 5.94L48.80 13.78L50.65 13.78L50.65 3.98ZM51.91 7.18C51.91 9.04 53.24 10.37 55.02 10.37C56.34 10.37 56.88 9.79 57.12 9.45L57.29 9.45L57.29 10.57C57.29 11.66 56.63 12.28 55.47 12.28C54.40 12.28 53.87 11.66 53.87 10.85L52.00 10.85C52.00 12.81 53.44 13.96 55.47 13.96C57.55 13.96 59.14 12.77 59.14 10.46L59.14 7.03C59.14 5.11 57.61 3.75 55.55 3.78C53.42 3.81 51.91 5.15 51.91 7.18ZM55.52 8.88C54.47 8.88 53.76 8.22 53.76 7.18C53.76 6.15 54.50 5.49 55.52 5.49C56.55 5.49 57.29 6.12 57.29 7.18C57.29 8.22 56.57 8.88 55.52 8.88Z"></path></g><defs data-v-423bf9ae=""><linearGradient data-v-423bf9ae="" gradientTransform="rotate(25)" id="c6965104-8f16-40a9-92bb-e6cf41dba624" x1="0%" y1="0%" x2="100%" y2="0%"><stop data-v-423bf9ae="" offset="0%" style="stop-color: rgb(0, 118, 221); stop-opacity: 1;"></stop><stop data-v-423bf9ae="" offset="100%" style="stop-color: rgb(0, 205, 233); stop-opacity: 1;"></stop></linearGradient></defs><g data-v-423bf9ae="" id="0690d0ef-c281-4b10-bbc0-b5e7c13e05fe" transform="matrix(1.875,0,0,1.875,0,0)" stroke="none" fill="url(#c6965104-8f16-40a9-92bb-e6cf41dba624)"><path d="M46.5 19a1.5 1.5 0 0 0-1.5 1.5V22h-4.128a16.9 16.9 0 0 0-3.53-8.514l2.921-2.921 1.176.996a1.5 1.5 0 1 0 2.122-2.122l-5-5a1.5 1.5 0 0 0-2.122 2.122l.996 1.175-2.921 2.922A16.902 16.902 0 0 0 26 7.128V3h1.5a1.5 1.5 0 0 0 0-3h-7a1.5 1.5 0 0 0 0 3H22v4.128a16.902 16.902 0 0 0-8.514 3.53l-2.921-2.922.996-1.175a1.5 1.5 0 0 0-2.122-2.122l-4.884 5a1.5 1.5 0 0 0 2.12 2.122l1.062-.996 2.92 2.921A16.9 16.9 0 0 0 7.128 22H3v-1.5a1.5 1.5 0 0 0-3 0v7a1.5 1.5 0 0 0 3 0V26h4.128a16.9 16.9 0 0 0 3.53 8.514l-2.921 2.921-1.176-.996a1.5 1.5 0 0 0-2.122 2.122l5 5a1.5 1.5 0 1 0 2.122-2.122l-.996-1.175 2.921-2.922A16.902 16.902 0 0 0 22 40.872V45h-1.5a1.5 1.5 0 0 0 0 3h7a1.5 1.5 0 0 0 0-3H26v-4.128a16.902 16.902 0 0 0 8.514-3.53l2.921 2.922-.996 1.175a1.5 1.5 0 0 0 2.122 2.122l5-5a1.5 1.5 0 1 0-2.122-2.122l-1.176.996-2.92-2.921A16.9 16.9 0 0 0 40.872 26H45v1.5a1.5 1.5 0 0 0 3 0v-7a1.5 1.5 0 0 0-1.5-1.5zm-28 1a3.5 3.5 0 1 1 3.5-3.5 3.5 3.5 0 0 1-3.5 3.5zM30 33a2 2 0 1 1 2-2 2 2 0 0 1-2 2z"></path></g><!----></svg>